<?xml version="1.0" encoding="UTF-8" standalone="no"?>
<svg
   xmlns:dc="http://purl.org/dc/elements/1.1/"
   xmlns:cc="http://creativecommons.org/ns#"
   xmlns:rdf="http://www.w3.org/1999/02/22-rdf-syntax-ns#"
   xmlns:svg="http://www.w3.org/2000/svg"
   xmlns="http://www.w3.org/2000/svg"
   xml:space="preserve"
   style="enable-background:new -102 104 94 94;"
   viewBox="-102 104 94 94"
   y="0px"
   x="0px"
   id="Layer_1"
   version="1.1"><metadata
   id="metadata23"><rdf:RDF><cc:Work
       rdf:about=""><dc:format>image/svg+xml</dc:format><dc:type
         rdf:resource="http://purl.org/dc/dcmitype/StillImage" /><dc:title></dc:title></cc:Work></rdf:RDF></metadata><defs
   id="defs21" />
<style
   id="style2"
   type="text/css">
	.st0{fill:#ED504C;}
</style>
<g
   id="g6">
	<path
   id="path4"
   d="M-55,197c-25.4,0-46-20.6-46-46s20.6-46,46-46s46,20.6,46,46S-29.6,197-55,197z M-55,107   c-24.3,0-44,19.7-44,44s19.7,44,44,44s44-19.7,44-44S-30.7,107-55,107z"
   class="st0" />
</g>
<g
   id="g16">
	<path
   id="path8"
   d="M-41.5,169.4h-27c-0.6,0-1-0.4-1-1v-16.9c0-0.6,0.4-1,1-1h27c0.6,0,1,0.4,1,1v16.9   C-40.5,169-40.9,169.4-41.5,169.4z M-67.5,167.4h25v-14.9h-25V167.4z"
   class="st0" />
	<path
   id="path10"
   d="M-46,152.6c-0.6,0-1-0.4-1-1v-9c0-4.4-3.6-8-8-8s-8,3.6-8,8v9c0,0.6-0.4,1-1,1s-1-0.4-1-1v-9   c0-5.5,4.5-10,10-10s10,4.5,10,10v9C-45,152.1-45.4,152.6-46,152.6z"
   class="st0" />
	<path
   id="path12"
   d="M-55,162.6c-1.8,0-3.2-1.4-3.2-3.2s1.4-3.2,3.2-3.2s3.2,1.4,3.2,3.2C-51.8,161.1-53.2,162.6-55,162.6z    M-55,158.2c-0.7,0-1.2,0.5-1.2,1.2s0.5,1.2,1.2,1.2s1.2-0.5,1.2-1.2S-54.3,158.2-55,158.2z"
   class="st0" />
	<path
   id="path14"
   d="M-55,164.8c-0.6,0-1-0.4-1-1v-2.2c0-0.6,0.4-1,1-1s1,0.4,1,1v2.2C-54,164.4-54.4,164.8-55,164.8z"
   class="st0" />
</g>
</svg>